<svg xmlns="http://www.w3.org/2000/svg" width="21.565" height="21.565" viewBox="0 0 21.565 21.565"><defs><style>.a{fill:#fff;}</style></defs><path class="a" d="M14.341,10.783l6.671-6.671a1.886,1.886,0,0,0,0-2.668L20.122.554a1.886,1.886,0,0,0-2.668,0L10.783,7.225,4.112.553a1.886,1.886,0,0,0-2.668,0l-.891.889a1.886,1.886,0,0,0,0,2.668l6.672,6.672L.554,17.454a1.886,1.886,0,0,0,0,2.668l.889.889a1.886,1.886,0,0,0,2.668,0l6.671-6.671,6.671,6.671a1.886,1.886,0,0,0,2.668,0l.889-.889a1.886,1.886,0,0,0,0-2.668Zm0,0"/></svg>