<svg xmlns="http://www.w3.org/2000/svg" width="80.352" height="80.352" viewBox="0 0 80.352 80.352"><defs><style>.a{fill:#fff;}</style></defs><path class="a" d="M53.434,40.179,78.292,15.321a7.028,7.028,0,0,0,0-9.942L74.978,2.065a7.027,7.027,0,0,0-9.942,0L40.179,26.922,15.321,2.06a7.028,7.028,0,0,0-9.942,0L2.06,5.374a7.029,7.029,0,0,0,0,9.943L26.922,40.179,2.065,65.036a7.027,7.027,0,0,0,0,9.942l3.314,3.314a7.028,7.028,0,0,0,9.942,0L40.179,53.434,65.036,78.292a7.029,7.029,0,0,0,9.942,0l3.314-3.314a7.029,7.029,0,0,0,0-9.942Zm0,0"/></svg>